<?xml version="1.0" encoding="UTF-8"?>
<svg id="Layer_1" xmlns="http://www.w3.org/2000/svg" version="1.1" viewBox="0 0 694.32 247.81">
  <!-- Generator: Adobe Illustrator 30.3.0, SVG Export Plug-In . SVG Version: 2.1.3 Build 182)  -->
  <defs>
    <style>
      .st0 {
        fill: #704c9f;
      }

      .st1 {
        stroke: #150f2b;
        stroke-miterlimit: 10;
        stroke-width: 1.87px;
      }

      .st1, .st2 {
        fill: #150f2b;
      }
    </style>
  </defs>
  <g>
    <path class="st2" d="M118.23,69.81c8.48,0,15.53,2.82,21.12,8.45,5.6,5.63,8.4,12.73,8.4,21.28s-2.82,15.67-8.45,21.33c-5.63,5.67-12.66,8.5-21.07,8.5-5.77,0-10.95-1.56-15.54-4.69v23.37h-15.23v-76.67h10.12l2.61,5.11c5.01-4.45,11.02-6.68,18.05-6.68ZM105.97,110.59c2.89,2.92,6.54,4.38,10.95,4.38s8.08-1.46,11.01-4.38,4.38-6.61,4.38-11.06c0-2.92-.66-5.56-1.98-7.93-1.32-2.36-3.15-4.21-5.48-5.53-2.33-1.32-4.96-1.98-7.88-1.98s-5.56.66-7.93,1.98c-2.37,1.32-4.19,3.17-5.48,5.53-1.29,2.37-1.93,5.01-1.93,7.93,0,4.45,1.44,8.14,4.33,11.06Z"/>
    <path class="st2" d="M203.51,122.33c-4.83,4.63-11.23,6.94-19.19,6.94s-14.36-2.33-19.19-6.99c-4.83-4.66-7.25-10.78-7.25-18.36v-32.55h15.23v30.77c0,4.03.99,7.18,2.97,9.44,1.98,2.26,4.73,3.39,8.24,3.39s6.26-1.13,8.24-3.39c1.98-2.26,2.97-5.41,2.97-9.44v-30.77h15.23v32.55c0,7.65-2.42,13.79-7.25,18.41Z"/>
    <path class="st2" d="M253.42,71.06h5.01v14.4h-6.57c-4.31,0-7.39,1.01-9.23,3.03-1.84,2.02-2.76,5.32-2.76,9.91v29.31h-15.23v-56.33h9.81l2.71,6.88c3.82-4.8,9.25-7.2,16.27-7.2Z"/>
    <path class="st2" d="M298.86,69.81c8.48,0,15.53,2.82,21.12,8.45,5.6,5.63,8.4,12.73,8.4,21.28s-2.82,15.67-8.45,21.33c-5.63,5.67-12.66,8.5-21.07,8.5-5.77,0-10.95-1.56-15.54-4.69v23.37h-15.23v-76.67h10.12l2.61,5.11c5.01-4.45,11.02-6.68,18.05-6.68ZM286.6,110.59c2.89,2.92,6.54,4.38,10.95,4.38s8.08-1.46,11.01-4.38,4.38-6.61,4.38-11.06c0-2.92-.66-5.56-1.98-7.93-1.32-2.36-3.15-4.21-5.48-5.53-2.33-1.32-4.96-1.98-7.88-1.98s-5.56.66-7.93,1.98c-2.37,1.32-4.19,3.17-5.48,5.53-1.29,2.37-1.93,5.01-1.93,7.93,0,4.45,1.44,8.14,4.33,11.06Z"/>
    <path class="st2" d="M365.04,129.27c-5.77,0-10.99-1.29-15.65-3.86-4.66-2.57-8.29-6.14-10.9-10.69-2.61-4.55-3.91-9.61-3.91-15.18,0-8.55,2.88-15.65,8.66-21.28,5.77-5.63,13.04-8.45,21.8-8.45s15.93,2.82,21.7,8.45c5.77,5.63,8.66,12.73,8.66,21.28s-2.9,15.56-8.71,21.23c-5.81,5.67-13.02,8.5-21.65,8.5ZM365.04,114.98c4.38,0,7.96-1.44,10.75-4.33,2.78-2.89,4.17-6.59,4.17-11.11s-1.39-8.22-4.17-11.11c-2.78-2.89-6.38-4.33-10.8-4.33s-8.02,1.44-10.8,4.33c-2.78,2.89-4.17,6.59-4.17,11.11,0,2.23.37,4.31,1.1,6.26.73,1.95,1.76,3.58,3.08,4.9,1.32,1.32,2.9,2.37,4.75,3.13,1.84.77,3.88,1.15,6.1,1.15Z"/>
    <path class="st2" d="M426.38,129.27c-4.66,0-8.78-.83-12.36-2.5-3.58-1.67-6.36-4.03-8.35-7.09-1.98-3.06-2.97-6.57-2.97-10.54h14.81c.07,1.67.5,3.08,1.3,4.23.8,1.15,1.89,1.98,3.29,2.5,1.39.52,2.99.78,4.8.78,1.46,0,2.78-.21,3.96-.63,1.18-.42,2.15-1.06,2.92-1.93.76-.87,1.15-1.89,1.15-3.08,0-1.74-.9-3.03-2.71-3.86-1.81-.83-4.52-1.56-8.14-2.19-2.29-.35-4.19-.69-5.68-1.04-1.5-.35-3.27-.96-5.32-1.83-2.05-.87-3.69-1.86-4.9-2.97-1.22-1.11-2.28-2.64-3.18-4.59-.9-1.95-1.36-4.21-1.36-6.78,0-5.28,2.09-9.6,6.26-12.94,4.17-3.34,9.65-5.01,16.43-5.01s12.24,1.72,16.38,5.16c4.14,3.44,6.21,7.98,6.21,13.61h-14.5c0-4.45-2.82-6.68-8.45-6.68-2.37,0-4.21.49-5.53,1.46-1.32.97-1.98,2.29-1.98,3.96,0,.7.19,1.34.57,1.93.38.59.83,1.06,1.36,1.41.52.35,1.34.68,2.45.99,1.11.31,2.05.54,2.82.68.76.14,1.91.35,3.44.63,1.32.28,2.26.47,2.82.57.56.1,1.5.3,2.82.57,1.32.28,2.31.54,2.97.78.66.24,1.56.57,2.71.99,1.15.42,2.02.85,2.61,1.3.59.45,1.32.99,2.19,1.62.87.63,1.55,1.32,2.03,2.09.49.77.97,1.6,1.46,2.5.49.9.82,1.95.99,3.13.17,1.18.26,2.44.26,3.76,0,5.77-2.16,10.38-6.47,13.82-4.31,3.44-10.01,5.16-17.11,5.16Z"/>
    <path class="st2" d="M515.78,99.33c0,1.46-.1,2.96-.31,4.49h-42.56c.63,3.83,2.14,6.76,4.54,8.81,2.4,2.05,5.48,3.08,9.23,3.08,2.57,0,4.9-.57,6.99-1.72,2.09-1.15,3.72-2.73,4.9-4.75h16.06c-2.09,6.12-5.63,10.99-10.64,14.6-5.01,3.62-10.78,5.42-17.32,5.42-8.35,0-15.3-2.85-20.86-8.55-5.57-5.7-8.35-12.76-8.35-21.18,0-3.34.47-6.54,1.41-9.6.94-3.06,2.29-5.81,4.07-8.24,1.77-2.43,3.84-4.54,6.21-6.31,2.36-1.77,5.04-3.15,8.03-4.12,2.99-.97,6.16-1.46,9.49-1.46,5.63,0,10.69,1.32,15.18,3.96,4.49,2.64,7.93,6.22,10.33,10.74,2.4,4.52,3.6,9.46,3.6,14.81ZM486.68,82.74c-3.41,0-6.28.94-8.61,2.82-2.33,1.88-3.91,4.49-4.75,7.82h27.23c-.7-2.29-1.7-4.23-3.02-5.79-1.32-1.56-2.91-2.76-4.75-3.6-1.84-.83-3.88-1.25-6.1-1.25Z"/>
  </g>
  <g>
    <path class="st1" d="M99.13,156.55c2.59,0,4.76.82,6.5,2.45,1.75,1.64,2.62,3.69,2.62,6.16s-.87,4.53-2.62,6.18c-1.75,1.65-3.92,2.47-6.5,2.47h-7.04v10.2h-2.84v-27.47h9.88ZM98.97,171.15c1.87,0,3.4-.57,4.6-1.71,1.2-1.14,1.8-2.56,1.8-4.26s-.61-3.16-1.82-4.28c-1.21-1.12-2.74-1.69-4.58-1.69h-6.88v11.93h6.88Z"/>
    <path class="st1" d="M144.11,184.02l-6.68-11.11h-7.12v11.11h-2.8v-27.47h10.48c2.59,0,4.72.77,6.4,2.32,1.68,1.54,2.52,3.5,2.52,5.88,0,.79-.1,1.54-.3,2.26s-.49,1.38-.88,1.98c-.39.6-.84,1.14-1.36,1.63-.52.48-1.12.89-1.8,1.24-.68.34-1.41.6-2.18.78l6.88,11.38h-3.16ZM130.3,159.18v11.11h7.56c1.84,0,3.33-.52,4.48-1.57,1.15-1.05,1.72-2.38,1.72-4.01,0-1.04-.26-1.99-.78-2.84-.52-.85-1.25-1.51-2.2-1.98-.95-.47-2.02-.71-3.22-.71h-7.56Z"/>
    <path class="st1" d="M179.8,184.45c-4.22,0-7.7-1.35-10.47-4.04-2.76-2.7-4.14-6.07-4.14-10.13s1.38-7.43,4.14-10.12c2.76-2.7,6.25-4.04,10.47-4.04s7.7,1.35,10.47,4.04c2.76,2.69,4.14,6.07,4.14,10.12,0,2.67-.63,5.08-1.88,7.24-1.25,2.16-2.99,3.85-5.22,5.08-2.23,1.23-4.73,1.84-7.5,1.84ZM171.4,178.49c2.21,2.2,5.02,3.3,8.4,3.3s6.19-1.09,8.4-3.28c2.21-2.18,3.32-4.93,3.32-8.22s-1.11-6.04-3.32-8.22c-2.21-2.18-5.02-3.28-8.4-3.28s-6.19,1.1-8.4,3.3c-2.21,2.2-3.32,4.93-3.32,8.2s1.11,6,3.32,8.2Z"/>
    <path class="st1" d="M223.38,156.55c4.13,0,7.54,1.3,10.2,3.89,2.67,2.59,4,5.87,4,9.85s-1.34,7.26-4.02,9.85c-2.68,2.59-6.08,3.89-10.18,3.89h-9v-27.47h9ZM223.3,181.43c3.33,0,6.08-1.05,8.22-3.16,2.15-2.11,3.22-4.77,3.22-8.01s-1.07-5.89-3.22-7.99c-2.15-2.09-4.89-3.14-8.22-3.14h-6.08v22.29h6.08Z"/>
    <path class="st1" d="M268.12,184.45c-2.05,0-3.91-.45-5.56-1.35-1.65-.9-2.95-2.17-3.88-3.79-.93-1.62-1.4-3.45-1.4-5.49v-17.27h2.84v17.07c0,2.4.75,4.36,2.24,5.87,1.49,1.5,3.41,2.25,5.76,2.25s4.23-.75,5.72-2.25c1.49-1.5,2.24-3.46,2.24-5.87v-17.07h2.84v17.27c0,3.09-1.02,5.63-3.06,7.63s-4.62,3-7.74,3Z"/>
    <path class="st1" d="M312.9,184.45c-4.16,0-7.59-1.33-10.28-3.98-2.69-2.65-4.04-6.04-4.04-10.16s1.35-7.52,4.04-10.19c2.69-2.67,6.12-4,10.28-4,3.2,0,5.98.85,8.34,2.53,2.36,1.69,3.97,3.97,4.83,6.85h-2.89c-.53-1.39-1.29-2.57-2.28-3.57-.99-1-2.16-1.76-3.52-2.3-1.36-.54-2.86-.8-4.48-.8-3.33,0-6.08,1.07-8.22,3.22-2.15,2.15-3.22,4.89-3.22,8.24s1.07,6.1,3.22,8.24c2.15,2.14,4.89,3.22,8.22,3.22,2.51,0,4.68-.63,6.52-1.88,1.84-1.26,3.16-2.99,3.96-5.22h2.84c-.85,3.01-2.47,5.4-4.86,7.16-2.39,1.77-5.21,2.65-8.47,2.65Z"/>
    <path class="st1" d="M362.2,156.55v2.59h-8.73v24.88h-2.8v-24.88h-8.72v-2.59h20.25Z"/>
    <path class="st1" d="M381.05,184.02v-27.47h2.84v27.47h-2.84Z"/>
    <path class="st1" d="M418.46,184.45c-4.22,0-7.71-1.35-10.47-4.04-2.76-2.7-4.14-6.07-4.14-10.13s1.38-7.43,4.14-10.12c2.76-2.7,6.25-4.04,10.47-4.04s7.7,1.35,10.46,4.04c2.76,2.69,4.14,6.07,4.14,10.12,0,2.67-.63,5.08-1.88,7.24-1.25,2.16-3,3.85-5.22,5.08-2.23,1.23-4.73,1.84-7.5,1.84ZM410.06,178.49c2.21,2.2,5.02,3.3,8.41,3.3s6.19-1.09,8.4-3.28c2.21-2.18,3.32-4.93,3.32-8.22s-1.11-6.04-3.32-8.22c-2.21-2.18-5.02-3.28-8.4-3.28s-6.19,1.1-8.41,3.3c-2.21,2.2-3.32,4.93-3.32,8.2s1.11,6,3.32,8.2Z"/>
    <path class="st1" d="M472.28,156.55h2.72v27.47h-2.36l-16.85-22.64v22.64h-2.76v-27.47h2.56l16.69,22.45v-22.45Z"/>
    <path class="st1" d="M505.1,184.38c-3.04,0-5.5-.79-7.36-2.38-1.87-1.58-2.8-3.68-2.8-6.3h2.88c0,1.8.66,3.25,2,4.34,1.33,1.09,3.09,1.63,5.28,1.63,1.95,0,3.57-.49,4.86-1.45,1.29-.97,1.94-2.25,1.94-3.85,0-.5-.08-.95-.24-1.37-.16-.42-.34-.77-.54-1.06-.2-.29-.51-.57-.94-.84-.43-.27-.8-.49-1.12-.65-.32-.16-.78-.33-1.4-.51-.61-.18-1.1-.32-1.46-.41-.36-.09-.9-.21-1.62-.37-.83-.19-1.46-.33-1.9-.43-.44-.1-1.04-.27-1.78-.51-.75-.23-1.33-.47-1.74-.7-.41-.24-.89-.54-1.42-.93-.53-.38-.94-.78-1.22-1.21-.28-.43-.52-.96-.72-1.59s-.3-1.31-.3-2.04c0-2.3.85-4.13,2.54-5.49,1.69-1.36,3.97-2.04,6.82-2.04,1.39,0,2.65.19,3.8.57,1.15.38,2.11.92,2.9,1.61.79.69,1.39,1.54,1.82,2.53.43,1,.64,2.1.64,3.3h-2.8c0-1.65-.59-2.95-1.78-3.9-1.19-.95-2.74-1.43-4.66-1.43s-3.48.43-4.68,1.29c-1.2.86-1.8,2.02-1.8,3.45,0,.42.05.8.14,1.16.09.36.25.67.48.95.23.27.45.52.66.74.21.22.53.43.94.63.41.19.76.35,1.04.47.28.12.69.26,1.24.41.55.16.98.27,1.3.33.32.07.78.18,1.4.34.85.18,1.5.34,1.94.45.44.12,1.05.3,1.82.55.77.25,1.37.49,1.78.71.41.22.9.54,1.46.94.56.41.98.83,1.26,1.27.28.44.52.99.72,1.65.2.65.3,1.36.3,2.12,0,2.46-.91,4.41-2.72,5.87-1.81,1.45-4.14,2.18-6.96,2.18Z"/>
  </g>
  <path class="st0" d="M545.85,72.62c0-3.82,2.94-6.93,6.56-6.93,1.15,0,2.29.33,3.3.96l76.84,47.58c2.04,1.26,3.26,3.51,3.26,6.02s-1.22,4.76-3.26,6.02l-63.37,39.24-.11-11.93c.02-3.8.57-5.93,3.68-7.81,7-4.24,14.06-8.66,20.89-12.93,3.19-1.99,6.37-3.98,9.56-5.96,2.82-1.75,5.65-3.48,8.59-5.26l2.23-1.36-53.95-33.48.02,12.06c.02,8.9.04,17.8.03,26.7,0,5.88-.01,11.75-.02,17.63-.02,8.47-.03,16.93-.02,25.4,0,1.67-.87,3.22-2.27,4.04-2.28,1.33-4.54,2.74-6.86,4.18l-5.1,3.15v-107.32ZM574.63,108.02l17.39,9.92c1.79,1.02,1.81,3.64,0,4.67l-17.41,9.95c-1.79,1.02-4.01-.27-4.01-2.34v-19.88c0-2.06,2.23-3.35,4.02-2.33Z"/>
</svg>